<svg width="32" height="32" viewBox="0 0 32 32" fill="none" xmlns="http://www.w3.org/2000/svg">
<rect width="32" height="32" fill="#0904FF" fill-opacity="0.3"/>
<rect width="404" height="298" transform="translate(-246 -86)" fill="white"/>
<mask id="path-1-inside-1_0_1" fill="white">
<path d="M5 5.74348C5 5.5463 5.07471 5.35719 5.20769 5.21776C5.34068 5.07833 5.52104 5 5.70911 5H7.83645C7.99463 5.00005 8.14825 5.05554 8.27288 5.15765C8.39752 5.25977 8.48601 5.40264 8.52429 5.56356L9.09867 7.97391H25.5643C25.6684 7.97401 25.7712 7.99815 25.8654 8.04462C25.9597 8.09108 26.043 8.15873 26.1094 8.24276C26.1759 8.32679 26.2239 8.42513 26.25 8.5308C26.2762 8.63648 26.2798 8.74689 26.2606 8.85419L24.1333 20.7498C24.1029 20.9202 24.0166 21.0741 23.8895 21.1849C23.7623 21.2956 23.6023 21.3564 23.4369 21.3565H10.6729C10.5076 21.3564 10.3475 21.2956 10.2204 21.1849C10.0932 21.0741 10.007 20.9202 9.97655 20.7498L7.85063 8.8765L7.28334 6.48696H5.70911C5.52104 6.48696 5.34068 6.40863 5.20769 6.2692C5.07471 6.12977 5 5.94066 5 5.74348ZM9.39934 9.46087L11.2615 19.8696H22.8484L24.7105 9.46087H9.39934ZM12.0911 21.3565C11.3389 21.3565 10.6174 21.6698 10.0855 22.2276C9.55352 22.7853 9.25468 23.5417 9.25468 24.3304C9.25468 25.1192 9.55352 25.8756 10.0855 26.4333C10.6174 26.991 11.3389 27.3043 12.0911 27.3043C12.8434 27.3043 13.5649 26.991 14.0968 26.4333C14.6287 25.8756 14.9276 25.1192 14.9276 24.3304C14.9276 23.5417 14.6287 22.7853 14.0968 22.2276C13.5649 21.6698 12.8434 21.3565 12.0911 21.3565ZM22.0187 21.3565C21.2664 21.3565 20.545 21.6698 20.013 22.2276C19.4811 22.7853 19.1823 23.5417 19.1823 24.3304C19.1823 25.1192 19.4811 25.8756 20.013 26.4333C20.545 26.991 21.2664 27.3043 22.0187 27.3043C22.771 27.3043 23.4924 26.991 24.0244 26.4333C24.5563 25.8756 24.8552 25.1192 24.8552 24.3304C24.8552 23.5417 24.5563 22.7853 24.0244 22.2276C23.4924 21.6698 22.771 21.3565 22.0187 21.3565ZM12.0911 22.8435C12.4673 22.8435 12.828 23.0001 13.094 23.279C13.3599 23.5579 13.5094 23.9361 13.5094 24.3304C13.5094 24.7248 13.3599 25.103 13.094 25.3819C12.828 25.6607 12.4673 25.8174 12.0911 25.8174C11.715 25.8174 11.3543 25.6607 11.0883 25.3819C10.8223 25.103 10.6729 24.7248 10.6729 24.3304C10.6729 23.9361 10.8223 23.5579 11.0883 23.279C11.3543 23.0001 11.715 22.8435 12.0911 22.8435ZM22.0187 22.8435C22.3948 22.8435 22.7556 23.0001 23.0215 23.279C23.2875 23.5579 23.4369 23.9361 23.4369 24.3304C23.4369 24.7248 23.2875 25.103 23.0215 25.3819C22.7556 25.6607 22.3948 25.8174 22.0187 25.8174C21.6426 25.8174 21.2818 25.6607 21.0159 25.3819C20.7499 25.103 20.6005 24.7248 20.6005 24.3304C20.6005 23.9361 20.7499 23.5579 21.0159 23.279C21.2818 23.0001 21.6426 22.8435 22.0187 22.8435V22.8435Z"/>
</mask>
<path d="M5 5.74348C5 5.5463 5.07471 5.35719 5.20769 5.21776C5.34068 5.07833 5.52104 5 5.70911 5H7.83645C7.99463 5.00005 8.14825 5.05554 8.27288 5.15765C8.39752 5.25977 8.48601 5.40264 8.52429 5.56356L9.09867 7.97391H25.5643C25.6684 7.97401 25.7712 7.99815 25.8654 8.04462C25.9597 8.09108 26.043 8.15873 26.1094 8.24276C26.1759 8.32679 26.2239 8.42513 26.25 8.5308C26.2762 8.63648 26.2798 8.74689 26.2606 8.85419L24.1333 20.7498C24.1029 20.9202 24.0166 21.0741 23.8895 21.1849C23.7623 21.2956 23.6023 21.3564 23.4369 21.3565H10.6729C10.5076 21.3564 10.3475 21.2956 10.2204 21.1849C10.0932 21.0741 10.007 20.9202 9.97655 20.7498L7.85063 8.8765L7.28334 6.48696H5.70911C5.52104 6.48696 5.34068 6.40863 5.20769 6.2692C5.07471 6.12977 5 5.94066 5 5.74348ZM9.39934 9.46087L11.2615 19.8696H22.8484L24.7105 9.46087H9.39934ZM12.0911 21.3565C11.3389 21.3565 10.6174 21.6698 10.0855 22.2276C9.55352 22.7853 9.25468 23.5417 9.25468 24.3304C9.25468 25.1192 9.55352 25.8756 10.0855 26.4333C10.6174 26.991 11.3389 27.3043 12.0911 27.3043C12.8434 27.3043 13.5649 26.991 14.0968 26.4333C14.6287 25.8756 14.9276 25.1192 14.9276 24.3304C14.9276 23.5417 14.6287 22.7853 14.0968 22.2276C13.5649 21.6698 12.8434 21.3565 12.0911 21.3565ZM22.0187 21.3565C21.2664 21.3565 20.545 21.6698 20.013 22.2276C19.4811 22.7853 19.1823 23.5417 19.1823 24.3304C19.1823 25.1192 19.4811 25.8756 20.013 26.4333C20.545 26.991 21.2664 27.3043 22.0187 27.3043C22.771 27.3043 23.4924 26.991 24.0244 26.4333C24.5563 25.8756 24.8552 25.1192 24.8552 24.3304C24.8552 23.5417 24.5563 22.7853 24.0244 22.2276C23.4924 21.6698 22.771 21.3565 22.0187 21.3565ZM12.0911 22.8435C12.4673 22.8435 12.828 23.0001 13.094 23.279C13.3599 23.5579 13.5094 23.9361 13.5094 24.3304C13.5094 24.7248 13.3599 25.103 13.094 25.3819C12.828 25.6607 12.4673 25.8174 12.0911 25.8174C11.715 25.8174 11.3543 25.6607 11.0883 25.3819C10.8223 25.103 10.6729 24.7248 10.6729 24.3304C10.6729 23.9361 10.8223 23.5579 11.0883 23.279C11.3543 23.0001 11.715 22.8435 12.0911 22.8435ZM22.0187 22.8435C22.3948 22.8435 22.7556 23.0001 23.0215 23.279C23.2875 23.5579 23.4369 23.9361 23.4369 24.3304C23.4369 24.7248 23.2875 25.103 23.0215 25.3819C22.7556 25.6607 22.3948 25.8174 22.0187 25.8174C21.6426 25.8174 21.2818 25.6607 21.0159 25.3819C20.7499 25.103 20.6005 24.7248 20.6005 24.3304C20.6005 23.9361 20.7499 23.5579 21.0159 23.279C21.2818 23.0001 21.6426 22.8435 22.0187 22.8435V22.8435Z" stroke="black" stroke-width="2" mask="url(#path-1-inside-1_0_1)"/>
</svg>
